<mxfile host="65bd71144e" modified="2021-01-13T05:00:59.091Z" agent="5.0 (Windows NT 10.0; Win64; x64) AppleWebKit/537.36 (KHTML, like Gecko) Code/1.52.1 Chrome/83.0.4103.122 Electron/9.3.5 Safari/537.36" etag="1WXUQ7zS13ZeU_9REKUe" version="13.10.0" type="embed">
    <diagram id="tp-U2XIL1ygxBwKYcZLS" name="Page-1">
        <mxGraphModel dx="2049" dy="659" grid="1" gridSize="10" guides="1" tooltips="1" connect="1" arrows="1" fold="1" page="1" pageScale="1" pageWidth="850" pageHeight="1100" math="0" shadow="0">
            <root>
                <mxCell id="0"/>
                <mxCell id="1" parent="0"/>
                <mxCell id="Eqhsl-l708YWbT3KwR9u-1" value="&lt;b&gt;Client&amp;nbsp;&lt;/b&gt;" style="rounded=1;whiteSpace=wrap;html=1;fillColor=#e1d5e7;strokeColor=#9673a6;strokeWidth=2;" parent="1" vertex="1">
                    <mxGeometry x="50" y="30" width="120" height="60" as="geometry"/>
                </mxCell>
                <mxCell id="Eqhsl-l708YWbT3KwR9u-2" value="Server" style="rounded=1;whiteSpace=wrap;html=1;fillColor=#f5f5f5;strokeColor=#666666;fontColor=#333333;strokeWidth=2;" parent="1" vertex="1">
                    <mxGeometry x="270" y="30" width="370" height="60" as="geometry"/>
                </mxCell>
                <mxCell id="Eqhsl-l708YWbT3KwR9u-3" value="" style="endArrow=classic;html=1;strokeWidth=4;fillColor=#d5e8d4;strokeColor=#82b366;" parent="1" edge="1">
                    <mxGeometry width="50" height="50" relative="1" as="geometry">
                        <mxPoint x="299.5" y="160" as="sourcePoint"/>
                        <mxPoint x="300" y="580" as="targetPoint"/>
                    </mxGeometry>
                </mxCell>
                <mxCell id="Eqhsl-l708YWbT3KwR9u-4" value="" style="endArrow=none;html=1;exitX=0.5;exitY=1;exitDx=0;exitDy=0;fillColor=#dae8fc;strokeWidth=2;endFill=0;" parent="1" source="Eqhsl-l708YWbT3KwR9u-1" edge="1">
                    <mxGeometry width="50" height="50" relative="1" as="geometry">
                        <mxPoint x="400" y="380" as="sourcePoint"/>
                        <mxPoint x="110" y="630" as="targetPoint"/>
                    </mxGeometry>
                </mxCell>
                <mxCell id="Eqhsl-l708YWbT3KwR9u-5" value="" style="endArrow=classic;html=1;strokeWidth=2;" parent="1" edge="1">
                    <mxGeometry width="50" height="50" relative="1" as="geometry">
                        <mxPoint x="110" y="160" as="sourcePoint"/>
                        <mxPoint x="300" y="160" as="targetPoint"/>
                    </mxGeometry>
                </mxCell>
                <mxCell id="Eqhsl-l708YWbT3KwR9u-7" value="&lt;font style=&quot;font-size: 15px&quot;&gt;&lt;b&gt;Main Task&lt;/b&gt; &lt;font color=&quot;#4d9900&quot; style=&quot;font-size: 15px&quot;&gt;Inbound Loop&lt;/font&gt;)&amp;nbsp;&lt;/font&gt;" style="text;html=1;strokeColor=none;fillColor=none;align=center;verticalAlign=middle;whiteSpace=wrap;rounded=0;" parent="1" vertex="1">
                    <mxGeometry x="280" y="180" width="230" height="20" as="geometry"/>
                </mxCell>
                <mxCell id="Eqhsl-l708YWbT3KwR9u-8" value="&lt;font style=&quot;font-size: 15px&quot;&gt;&lt;b&gt;Secondary Task&lt;/b&gt; (&lt;font color=&quot;#ff0000&quot;&gt;outbound Loop&lt;/font&gt;)&lt;/font&gt;" style="text;html=1;strokeColor=none;fillColor=none;align=center;verticalAlign=middle;whiteSpace=wrap;rounded=0;strokeWidth=3;" parent="1" vertex="1">
                    <mxGeometry x="590" y="250" width="250" height="20" as="geometry"/>
                </mxCell>
                <mxCell id="Eqhsl-l708YWbT3KwR9u-9" value="CONNECT" style="text;html=1;strokeColor=none;fillColor=none;align=center;verticalAlign=middle;whiteSpace=wrap;rounded=0;" parent="1" vertex="1">
                    <mxGeometry x="110" y="140" width="170" height="20" as="geometry"/>
                </mxCell>
                <mxCell id="Eqhsl-l708YWbT3KwR9u-10" value="" style="endArrow=none;dashed=1;html=1;dashPattern=1 3;strokeWidth=4;" parent="1" edge="1">
                    <mxGeometry width="50" height="50" relative="1" as="geometry">
                        <mxPoint x="300" y="95" as="sourcePoint"/>
                        <mxPoint x="300" y="160" as="targetPoint"/>
                    </mxGeometry>
                </mxCell>
                <mxCell id="Eqhsl-l708YWbT3KwR9u-11" value="" style="endArrow=none;dashed=1;html=1;dashPattern=1 3;strokeWidth=4;" parent="1" edge="1">
                    <mxGeometry width="50" height="50" relative="1" as="geometry">
                        <mxPoint x="300" y="160" as="sourcePoint"/>
                        <mxPoint x="600" y="160" as="targetPoint"/>
                    </mxGeometry>
                </mxCell>
                <mxCell id="Eqhsl-l708YWbT3KwR9u-12" value="" style="endArrow=none;dashed=1;html=1;dashPattern=1 3;strokeWidth=4;entryX=0.9;entryY=1.017;entryDx=0;entryDy=0;entryPerimeter=0;" parent="1" target="Eqhsl-l708YWbT3KwR9u-2" edge="1">
                    <mxGeometry width="50" height="50" relative="1" as="geometry">
                        <mxPoint x="600" y="260" as="sourcePoint"/>
                        <mxPoint x="600" y="160" as="targetPoint"/>
                    </mxGeometry>
                </mxCell>
                <mxCell id="Eqhsl-l708YWbT3KwR9u-14" value="" style="endArrow=classic;html=1;strokeWidth=2;" parent="1" edge="1">
                    <mxGeometry width="50" height="50" relative="1" as="geometry">
                        <mxPoint x="300" y="240" as="sourcePoint"/>
                        <mxPoint x="600" y="240" as="targetPoint"/>
                    </mxGeometry>
                </mxCell>
                <mxCell id="Eqhsl-l708YWbT3KwR9u-15" value="&lt;font style=&quot;font-size: 16px&quot;&gt;Spawns secondary task&amp;nbsp;&lt;/font&gt;" style="text;html=1;strokeColor=none;fillColor=none;align=center;verticalAlign=middle;whiteSpace=wrap;rounded=0;" parent="1" vertex="1">
                    <mxGeometry x="290" y="220" width="290" height="20" as="geometry"/>
                </mxCell>
                <mxCell id="Eqhsl-l708YWbT3KwR9u-16" value="" style="endArrow=classic;html=1;strokeWidth=4;fillColor=#f8cecc;strokeColor=#b85450;" parent="1" edge="1">
                    <mxGeometry width="50" height="50" relative="1" as="geometry">
                        <mxPoint x="600" y="240" as="sourcePoint"/>
                        <mxPoint x="600" y="530" as="targetPoint"/>
                    </mxGeometry>
                </mxCell>
                <mxCell id="Eqhsl-l708YWbT3KwR9u-17" value="" style="endArrow=classic;html=1;strokeWidth=2;" parent="1" edge="1">
                    <mxGeometry width="50" height="50" relative="1" as="geometry">
                        <mxPoint x="110" y="440" as="sourcePoint"/>
                        <mxPoint x="300" y="440" as="targetPoint"/>
                    </mxGeometry>
                </mxCell>
                <mxCell id="Eqhsl-l708YWbT3KwR9u-18" value="DISCONNECT" style="text;html=1;strokeColor=none;fillColor=none;align=center;verticalAlign=middle;whiteSpace=wrap;rounded=0;" parent="1" vertex="1">
                    <mxGeometry x="120" y="420" width="170" height="20" as="geometry"/>
                </mxCell>
                <mxCell id="Eqhsl-l708YWbT3KwR9u-22" value="" style="endArrow=none;dashed=1;html=1;dashPattern=1 3;strokeWidth=3;" parent="1" edge="1">
                    <mxGeometry width="50" height="50" relative="1" as="geometry">
                        <mxPoint x="110" y="529.5" as="sourcePoint"/>
                        <mxPoint x="600" y="529.5" as="targetPoint"/>
                    </mxGeometry>
                </mxCell>
                <mxCell id="Eqhsl-l708YWbT3KwR9u-24" value="" style="endArrow=none;dashed=1;html=1;dashPattern=1 3;strokeWidth=4;" parent="1" edge="1">
                    <mxGeometry width="50" height="50" relative="1" as="geometry">
                        <mxPoint x="600" y="530" as="sourcePoint"/>
                        <mxPoint x="600" y="620" as="targetPoint"/>
                    </mxGeometry>
                </mxCell>
                <mxCell id="Eqhsl-l708YWbT3KwR9u-26" value="" style="endArrow=classic;html=1;strokeWidth=2;fillColor=#d5e8d4;strokeColor=#82b366;" parent="1" edge="1">
                    <mxGeometry width="50" height="50" relative="1" as="geometry">
                        <mxPoint x="110" y="300" as="sourcePoint"/>
                        <mxPoint x="300" y="300" as="targetPoint"/>
                    </mxGeometry>
                </mxCell>
                <mxCell id="Eqhsl-l708YWbT3KwR9u-27" value="" style="endArrow=classic;html=1;strokeWidth=2;fillColor=#d5e8d4;strokeColor=#82b366;" parent="1" edge="1">
                    <mxGeometry width="50" height="50" relative="1" as="geometry">
                        <mxPoint x="110" y="320" as="sourcePoint"/>
                        <mxPoint x="300" y="319.5" as="targetPoint"/>
                    </mxGeometry>
                </mxCell>
                <mxCell id="Eqhsl-l708YWbT3KwR9u-28" value="" style="endArrow=classic;html=1;strokeWidth=2;fillColor=#d5e8d4;strokeColor=#82b366;" parent="1" edge="1">
                    <mxGeometry width="50" height="50" relative="1" as="geometry">
                        <mxPoint x="110" y="340" as="sourcePoint"/>
                        <mxPoint x="300" y="340" as="targetPoint"/>
                    </mxGeometry>
                </mxCell>
                <mxCell id="Eqhsl-l708YWbT3KwR9u-29" value="" style="endArrow=classic;html=1;strokeWidth=2;fillColor=#f8cecc;strokeColor=#b85450;" parent="1" edge="1">
                    <mxGeometry width="50" height="50" relative="1" as="geometry">
                        <mxPoint x="600" y="330" as="sourcePoint"/>
                        <mxPoint x="110" y="330" as="targetPoint"/>
                    </mxGeometry>
                </mxCell>
                <mxCell id="Eqhsl-l708YWbT3KwR9u-35" value="" style="endArrow=classic;html=1;strokeWidth=2;fillColor=#f8cecc;strokeColor=#b85450;" parent="1" edge="1">
                    <mxGeometry width="50" height="50" relative="1" as="geometry">
                        <mxPoint x="600" y="310" as="sourcePoint"/>
                        <mxPoint x="110" y="310" as="targetPoint"/>
                    </mxGeometry>
                </mxCell>
                <mxCell id="Eqhsl-l708YWbT3KwR9u-36" value="" style="endArrow=classic;html=1;strokeWidth=2;fillColor=#f8cecc;strokeColor=#b85450;" parent="1" edge="1">
                    <mxGeometry width="50" height="50" relative="1" as="geometry">
                        <mxPoint x="600" y="350" as="sourcePoint"/>
                        <mxPoint x="110" y="350" as="targetPoint"/>
                    </mxGeometry>
                </mxCell>
                <mxCell id="Eqhsl-l708YWbT3KwR9u-37" value="" style="endArrow=classic;html=1;strokeWidth=2;fillColor=#f8cecc;strokeColor=#b85450;" parent="1" edge="1">
                    <mxGeometry width="50" height="50" relative="1" as="geometry">
                        <mxPoint x="600" y="360" as="sourcePoint"/>
                        <mxPoint x="110" y="360" as="targetPoint"/>
                    </mxGeometry>
                </mxCell>
                <mxCell id="Eqhsl-l708YWbT3KwR9u-38" value="" style="endArrow=classic;html=1;strokeWidth=2;fillColor=#d5e8d4;strokeColor=#82b366;" parent="1" edge="1">
                    <mxGeometry width="50" height="50" relative="1" as="geometry">
                        <mxPoint x="110" y="370" as="sourcePoint"/>
                        <mxPoint x="300" y="370" as="targetPoint"/>
                    </mxGeometry>
                </mxCell>
                <mxCell id="Eqhsl-l708YWbT3KwR9u-39" value="" style="endArrow=classic;html=1;strokeWidth=2;fillColor=#d5e8d4;strokeColor=#82b366;" parent="1" edge="1">
                    <mxGeometry width="50" height="50" relative="1" as="geometry">
                        <mxPoint x="110" y="380" as="sourcePoint"/>
                        <mxPoint x="300" y="380" as="targetPoint"/>
                    </mxGeometry>
                </mxCell>
                <mxCell id="Eqhsl-l708YWbT3KwR9u-44" value="" style="shape=curlyBracket;whiteSpace=wrap;html=1;rounded=1;strokeWidth=2;rotation=-180;size=0.3;" parent="1" vertex="1">
                    <mxGeometry x="610" y="290" width="20" height="100" as="geometry"/>
                </mxCell>
                <mxCell id="Eqhsl-l708YWbT3KwR9u-45" value="&lt;span style=&quot;font-size: 15px&quot;&gt;Message exchange via Websocket&lt;/span&gt;" style="text;html=1;strokeColor=none;fillColor=none;align=center;verticalAlign=middle;whiteSpace=wrap;rounded=0;" parent="1" vertex="1">
                    <mxGeometry x="620" y="330" width="280" height="20" as="geometry"/>
                </mxCell>
                <mxCell id="Eqhsl-l708YWbT3KwR9u-46" value="Main Task Ends" style="text;html=1;strokeColor=none;fillColor=none;align=center;verticalAlign=middle;whiteSpace=wrap;rounded=0;" parent="1" vertex="1">
                    <mxGeometry x="10" y="570" width="90" height="20" as="geometry"/>
                </mxCell>
                <mxCell id="Eqhsl-l708YWbT3KwR9u-48" value="Secondary Task&lt;br&gt;Ends" style="text;html=1;strokeColor=none;fillColor=none;align=center;verticalAlign=middle;whiteSpace=wrap;rounded=0;" parent="1" vertex="1">
                    <mxGeometry x="-40" y="520" width="160" height="20" as="geometry"/>
                </mxCell>
                <mxCell id="Eqhsl-l708YWbT3KwR9u-49" value="" style="endArrow=none;dashed=1;html=1;dashPattern=1 3;strokeWidth=4;" parent="1" edge="1">
                    <mxGeometry width="50" height="50" relative="1" as="geometry">
                        <mxPoint x="110" y="580" as="sourcePoint"/>
                        <mxPoint x="600" y="580" as="targetPoint"/>
                    </mxGeometry>
                </mxCell>
                <mxCell id="1IkUDJrbr7K4-iQkpPMn-1" value="" style="endArrow=none;dashed=1;html=1;" parent="1" edge="1">
                    <mxGeometry width="50" height="50" relative="1" as="geometry">
                        <mxPoint x="110" y="390" as="sourcePoint"/>
                        <mxPoint x="600" y="390" as="targetPoint"/>
                    </mxGeometry>
                </mxCell>
                <mxCell id="1IkUDJrbr7K4-iQkpPMn-2" value="" style="endArrow=none;dashed=1;html=1;" parent="1" edge="1">
                    <mxGeometry width="50" height="50" relative="1" as="geometry">
                        <mxPoint x="110" y="289.5" as="sourcePoint"/>
                        <mxPoint x="600" y="289.5" as="targetPoint"/>
                    </mxGeometry>
                </mxCell>
                <mxCell id="1IkUDJrbr7K4-iQkpPMn-5" value="" style="endArrow=none;dashed=1;html=1;strokeWidth=2;" edge="1" parent="1">
                    <mxGeometry width="50" height="50" relative="1" as="geometry">
                        <mxPoint x="300" y="480" as="sourcePoint"/>
                        <mxPoint x="600" y="480" as="targetPoint"/>
                    </mxGeometry>
                </mxCell>
                <mxCell id="1IkUDJrbr7K4-iQkpPMn-7" value="&lt;font style=&quot;font-size: 15px&quot;&gt;Attempt to write on closed websocket triggers exception&amp;nbsp;&amp;nbsp;&lt;/font&gt;" style="text;html=1;strokeColor=none;fillColor=none;align=center;verticalAlign=middle;whiteSpace=wrap;rounded=0;" vertex="1" parent="1">
                    <mxGeometry x="580" y="470" width="300" height="20" as="geometry"/>
                </mxCell>
                <mxCell id="1IkUDJrbr7K4-iQkpPMn-8" value="&lt;font style=&quot;font-size: 20px&quot;&gt;&lt;font style=&quot;font-size: 20px&quot;&gt;&lt;b&gt;Important Note&lt;/b&gt;&lt;/font&gt;&amp;nbsp;: For the sake of simplicity we did not include a synchronization mechanism between the two tasks ,&amp;nbsp; therefore,&amp;nbsp; the &lt;b&gt;secondary task&lt;/b&gt; ends the moment it tries to write to the closed socket - which could be before or after the &lt;b&gt;main task&lt;/b&gt; ends !!!!&lt;/font&gt;" style="text;html=1;strokeColor=none;fillColor=none;align=center;verticalAlign=middle;whiteSpace=wrap;rounded=0;" vertex="1" parent="1">
                    <mxGeometry x="-10" y="670" width="840" height="20" as="geometry"/>
                </mxCell>
            </root>
        </mxGraphModel>
    </diagram>
</mxfile>